#!OML:ASF F:\VICON\USERDATA\INSTALL\rory3\rory3.ASF
:FULLY-SPECIFIED
:DEGREES
61
root 4.81709 17.5734 -18.5313 0.627156 -5.25869 -8.51751
lowerback 10.7127 1.65415 7.62768
upperback 0.188729 3.28613 2.55174
thorax -5.54709 1.44241 -2.09635
lowerneck -17.6449 -3.45046 -1.75306
upperneck 20.0175 -4.29375 -0.0216124
head 9.25138 -2.14126 -0.277663
rclavicle 2.50717e-014 -3.65764e-014
rhumerus -21.0024 -8.75432 -81.7577
rradius 30.997
rwrist -0.77012
rhand -18.3146 22.5077
rfingers 7.12502
rthumb 7.96672 -7.32212
lclavicle 2.50717e-014 -3.65764e-014
lhumerus -35.4485 12.7705 78.0833
lradius 20.4708
lwrist -0.168249
lhand -26.2481 22.0178
lfingers 7.12502
lthumb 0.306091 51.9973
rfemur 9.80703 7.71901 35.3505
rtibia 25.9785
rfoot -20.6376 -5.9066
rtoes -5.97013
lfemur -28.6453 -3.80446 -9.62425
ltibia 17.2572
lfoot -2.92428 2.72712
ltoes -8.60533
62
root 4.84136 17.6024 -18.313 0.549674 -5.35309 -8.42308
lowerback 10.4446 1.66134 7.60889
upperback 0.291397 3.25872 2.55563
thorax -5.29071 1.44155 -2.06481
lowerneck -17.5565 -3.41739 -1.85631
upperneck 20.0371 -4.22073 -0.0236733
head 9.24402 -2.11574 -0.250502
rclavicle 2.51897e-014 -1.17283e-014
rhumerus -21.0064 -8.64851 -81.6856
rradius 30.8675
rwrist -0.516866
rhand -18.5343 22.7439
rfingers 7.12502
rthumb 7.75467 -7.09394
lclavicle 2.51897e-014 -1.17283e-014
lhumerus -35.3828 13.1863 77.9818
lradius 19.982
lwrist -0.867929
lhand -26.1121 20.424
lfingers 7.12502
lthumb 0.43743 50.4033
rfemur 10.2145 7.79871 35.1317
rtibia 26.5514
rfoot -20.4179 -4.9226
rtoes -5.76732
lfemur -28.6751 -3.6786 -10.022
ltibia 18.7173
lfoot -1.5549 1.44622
ltoes -4.85245
63
root 4.86265 17.6231 -18.1054 0.433508 -5.41561 -7.97232
lowerback 10.4389 1.7163 7.1989
upperback 0.291825 3.27402 2.40348
thorax -5.29802 1.45765 -1.99897
lowerneck -17.39 -3.36987 -1.83079
upperneck 20.0618 -4.1796 0.0349995
head 9.22263 -2.08871 -0.226418
rclavicle 1.94312e-014 -3.05134e-014
rhumerus -21.0827 -9.03564 -81.6098
rradius 30.6086
rwrist -0.0923191
rhand -18.9369 22.4334
rfingers 7.12502
rthumb 7.36605 -7.41837
lclavicle 1.94312e-014 -3.05134e-014
lhumerus -35.5334 12.9564 78.07
lradius 19.9723
lwrist -0.666911
lhand -25.9967 22.6997
lfingers 7.12502
lthumb 0.548948 52.6787
rfemur 10.6554 7.78233 34.5512
rtibia 27.0595
rfoot -19.6476 -4.42051
rtoes -7.19749
lfemur -28.7475 -3.41243 -10.78
ltibia 19.9845
lfoot 0.219609 0.0537981
ltoes -0.360624
64
root 4.88032 17.6363 -17.8917 0.412603 -5.60933 -7.47417
lowerback 10.5439 1.80721 6.61915
upperback 0.0494165 3.34522 2.29816
thorax -5.6331 1.49074 -1.8073
lowerneck -17.1573 -3.34924 -1.88117
upperneck 20.3457 -4.14845 0.0453578
head 9.28001 -2.0775 -0.209579
rclavicle -8.31168e-015 1.21259e-014
rhumerus -21.5781 -9.35513 -81.4395
rradius 30.4104
rwrist 0.224111
rhand -18.9398 22.2694
rfingers 7.12502
rthumb 7.36329 -7.58249
lclavicle -8.31168e-015 1.21259e-014
lhumerus -36.2107 12.9234 78.0023
lradius 19.9479
lwrist -0.218863
lhand -26.0443 21.7354
lfingers 7.12502
lthumb 0.502957 51.7146
rfemur 10.803 8.02449 33.9726
rtibia 28.0835
rfoot -18.7886 -4.15575
rtoes -8.24561
lfemur -28.7558 -2.84308 -11.6047
ltibia 21.0657
lfoot 1.26964 -1.26279
ltoes -6.41223
65
root 4.94589 17.686 -17.5501 -0.523868 -7.79096 -6.51542
lowerback 9.85813 2.5477 6.18258
upperback 0.698985 4.15952 1.95062
thorax -4.5024 1.94801 -1.98413
lowerneck -17.2484 -3.36945 -1.83331
upperneck 20.5128 -4.17823 -0.0030322
head 9.35288 -2.09225 -0.241504
rclavicle 6.32881e-014 1.59028e-014
rhumerus -21.4989 -10.1842 -81.2462
rradius 29.822
rwrist 0.906746
rhand -18.9169 22.4699
rfingers 7.12502
rthumb 7.38535 -7.38118
lclavicle 6.32881e-014 1.59028e-014
lhumerus -36.3347 13.3016 77.8893
lradius 19.8158
lwrist -0.586843
lhand -26.1552 21.9162
lfingers 7.12502
lthumb 0.395886 51.8956
rfemur 12.2959 9.12793 32.3989
rtibia 29.347
rfoot -18.2054 -2.79309
rtoes -9.84521
lfemur -26.7784 -2.75451 -12.5768
ltibia 22.1609
lfoot 0.895595 0.430792
ltoes -6.04154
66
root 4.91457 17.662 -17.4658 -0.190861 -5.04065 -6.29086
lowerback 10.5458 1.77185 5.48158
upperback 0.362038 3.12363 1.95553
thorax -5.35774 1.42203 -1.4956
lowerneck -17.462 -3.39799 -1.58495
upperneck 20.5964 -4.25814 -0.108101
head 9.41311 -2.12046 -0.33377
rclavicle -4.34717e-014 -2.62893e-014
rhumerus -21.3081 -11.1542 -81.1941
rradius 29.4097
rwrist 1.35085
rhand -18.9383 22.4593
rfingers 7.12502
rthumb 7.36475 -7.39253
lclavicle -4.34717e-014 -2.62893e-014
lhumerus -35.9114 13.2409 77.9518
lradius 19.4677
lwrist -0.648177
lhand -26.8256 22.4097
lfingers 7.12502
lthumb -0.251629 52.3893
rfemur 11.1172 7.52602 32.638
rtibia 31.089
rfoot -16.8654 -3.41965
rtoes -9.94256
lfemur -28.3656 -2.82805 -13.3951
ltibia 23.3101
lfoot 0.990935 -2.19253
ltoes -2.70826
67
root 4.93515 17.6695 -17.2478 0.172297 -4.77869 -5.98673
lowerback 9.99117 1.70522 5.21996
upperback 0.183965 2.97022 1.88487
thorax -5.25244 1.35348 -1.38398
lowerneck -17.3867 -3.3287 -1.64988
upperneck 20.7666 -4.16424 -0.0374481
head 9.46151 -2.07369 -0.287079
rclavicle -1.06971e-014 -2.0773e-014
rhumerus -21.5791 -11.7321 -81.0351
rradius 28.9716
rwrist 1.99718
rhand -18.7718 22.5079
rfingers 7.12502
rthumb 7.52546 -7.33827
lclavicle -1.06971e-014 -2.0773e-014
lhumerus -36.0476 13.6265 77.7465
lradius 19.0685
lwrist -0.938938
lhand -26.7625 21.87
lfingers 7.12502
lthumb -0.190718 51.8497
rfemur 10.1402 7.27644 32.0752
rtibia 32.9762
rfoot -15.2934 -2.84062
rtoes -10.5162
lfemur -28.8362 -2.79421 -14.0142
ltibia 24.4851
lfoot 0.865531 -2.43687
ltoes -1.51059
68
root 4.95442 17.6831 -17.0336 -0.270931 -4.28466 -5.5356
lowerback 10.359 1.57324 4.89683
upperback 0.151874 2.77659 1.74911
thorax -5.51232 1.2576 -1.33298
lowerneck -17.2085 -3.3426 -1.71806
upperneck 20.8944 -4.19639 0.0725404
head 9.47803 -2.08195 -0.240474
rclavicle 5.97596e-015 -1.43622e-014
rhumerus -21.9364 -12.6324 -80.7739
rradius 28.4656
rwrist 2.46765
rhand -18.6986 22.6849
rfingers 7.12502
rthumb 7.59606 -7.15871
lclavicle 5.97596e-015 -1.43622e-014
lhumerus -36.2315 13.6519 77.669
lradius 18.7417
lwrist -1.0964
lhand -26.7237 20.3732
lfingers 7.12502
lthumb -0.153241 50.3529
rfemur 9.77044 6.55351 31.417
rtibia 35.282
rfoot -13.6593 -2.17666
rtoes -11.3233
lfemur -28.3033 -2.62088 -14.9978
ltibia 25.5822
lfoot 0.384387 -3.2342
ltoes -0.676001
69
root 4.97561 17.7015 -16.8203 -0.518331 -3.79646 -5.23298
lowerback 10.4715 1.48133 4.76325
upperback 0.128291 2.64025 1.6304
thorax -5.60805 1.18998 -1.36728
lowerneck -17.1955 -3.40599 -1.75018
upperneck 21.179 -4.29477 0.134131
head 9.57876 -2.12215 -0.230053
rclavicle -8.51047e-016 -2.57426e-014
rhumerus -22.4003 -13.6486 -80.4664
rradius 28.1268
rwrist 2.9713
rhand -18.769 22.6614
rfingers 7.12502
rthumb 7.52812 -7.18468
lclavicle -8.51047e-016 -2.57426e-014
lhumerus -36.2022 13.6117 77.6598
lradius 18.4581
lwrist -1.16847
lhand -26.5619 19.2264
lfingers 7.12502
lthumb 0.00300971 49.2061
rfemur 9.18837 5.78697 30.8228
rtibia 37.4793
rfoot -11.3859 -1.36393
rtoes -11.2722
lfemur -28.0126 -2.55219 -15.7267
ltibia 26.7866
lfoot -0.0170251 -3.59466
ltoes 0.0273244
70
root 5.00196 17.7136 -16.6122 -0.738396 -3.47777 -5.09818
lowerback 10.7716 1.38119 4.76832
upperback -0.00805306 2.532 1.60535
thorax -5.92602 1.12645 -1.39268
lowerneck -17.1743 -3.37732 -1.77681
upperneck 21.6194 -4.24189 0.0849374
head 9.72921 -2.10407 -0.240369
rclavicle -3.16502e-014 -1.19271e-015
rhumerus -23.0643 -14.3113 -80.1129
rradius 27.8903
rwrist 3.46833
rhand -18.8668 22.2267
rfingers 7.12502
rthumb 7.43371 -7.62266
lclavicle -3.16502e-014 -1.19271e-015
lhumerus -36.3663 13.5736 77.6585
lradius 18.1776
lwrist -1.37768
lhand -26.4291 19.2615
lfingers 7.12502
lthumb 0.13132 49.2412
rfemur 8.46545 5.07932 30.3056
rtibia 39.7298
rfoot -8.42009 -0.333699
rtoes -9.72408
lfemur -27.746 -2.4233 -16.1943
ltibia 27.8971
lfoot -0.0543796 -3.73937
ltoes -0.063425
71
root 5.03273 17.7279 -16.4008 -0.930132 -3.37056 -5.01765
lowerback 10.8501 1.35047 4.82804
upperback -0.0311006 2.50486 1.60564
thorax -5.99389 1.10932 -1.42458
lowerneck -16.9673 -3.38296 -1.7407
upperneck 21.6883 -4.2239 -0.0815786
head 9.70995 -2.11301 -0.298558
rclavicle -1.08027e-014 1.5704e-014
rhumerus -23.5092 -14.6862 -79.8656
rradius 27.6884
rwrist 3.45212
rhand -19.1383 21.6503
rfingers 7.12502
rthumb 7.17164 -8.2082
lclavicle -1.08027e-014 1.5704e-014
lhumerus -36.3927 14.0283 77.4685
lradius 17.8219
lwrist -2.1232
lhand -26.0278 19.6381
lfingers 7.12502
lthumb 0.518938 49.6172
rfemur 7.60238 4.51202 29.7587
rtibia 42.0633
rfoot -4.83324 0.761503
rtoes -6.77743
lfemur -27.3237 -2.24257 -16.5619
ltibia 28.8287
lfoot -0.827489 -4.66694
ltoes -0.566084
72
root 5.06301 17.7449 -16.1868 -1.13433 -3.61771 -4.89976
lowerback 10.7567 1.48934 4.95477
upperback 0.15129 2.68207 1.46802
thorax -5.7254 1.20011 -1.66004
lowerneck -17.1396 -3.44051 -1.40518
upperneck 21.5994 -4.35119 -0.252249
head 9.69851 -2.16356 -0.432034
rclavicle 6.69656e-015 4.87022e-015
rhumerus -23.6319 -15.4803 -79.7944
rradius 27.4609
rwrist 3.49024
rhand -19.1331 21.3874
rfingers 7.12502
rthumb 7.17665 -8.47092
lclavicle 6.69656e-015 4.87022e-015
lhumerus -36.0431 13.3893 77.776
lradius 17.9049
lwrist -1.79472
lhand -25.8029 21.1789
lfingers 7.12502
lthumb 0.736095 51.1574
rfemur 6.61941 4.2985 29.1654
rtibia 44.4545
rfoot -1.06817 1.75396
rtoes -5.10051
lfemur -26.6575 -1.93572 -16.9418
ltibia 29.4872
lfoot -1.30895 -4.73493
ltoes 0.467586
73
root 5.08848 17.7604 -15.9847 -1.39313 -4.02035 -4.84049
lowerback 10.9357 1.6095 4.98091
upperback 0.232349 2.85237 1.46258
thorax -5.72813 1.28375 -1.71078
lowerneck -17.127 -3.43383 -1.36276
upperneck 21.6757 -4.3545 -0.25442
head 9.72199 -2.16157 -0.440971
rclavicle -2.41026e-015 -1.65985e-014
rhumerus -23.9561 -15.8853 -79.6078
rradius 27.251
rwrist 3.32478
rhand -18.6076 21.7438
rfingers 7.12502
rthumb 7.68387 -8.09661
lclavicle -2.41026e-015 -1.65985e-014
lhumerus -36.0453 13.0726 78.032
lradius 18.1874
lwrist -1.63931
lhand -25.4579 22.6681
lfingers 7.12502
lthumb 1.06933 52.6452
rfemur 5.55332 4.28824 28.7331
rtibia 46.8805
rfoot 2.40196 2.56812
rtoes -6.47837
lfemur -25.8182 -1.45489 -17.2449
ltibia 29.8667
lfoot -1.92555 -4.50588
ltoes 1.25931
74
root 5.11651 17.7829 -15.7816 -1.55823 -4.33595 -4.62727
lowerback 10.9125 1.66459 4.809
upperback 0.22793 2.90463 1.49478
thorax -5.72636 1.31458 -1.58804
lowerneck -16.6655 -3.41076 -1.49297
upperneck 21.7026 -4.28435 -0.297278
head 9.64758 -2.147 -0.416331
rclavicle -2.91841e-014 1.07344e-014
rhumerus -24.4086 -16.365 -79.1907
rradius 27.0119
rwrist 3.19543
rhand -17.2386 22.5704
rfingers 7.12502
rthumb 9.00509 -7.21736
lclavicle -2.91841e-014 1.07344e-014
lhumerus -36.2611 13.1715 78.1265
lradius 18.3422
lwrist -1.92594
lhand -25.5278 22.9869
lfingers 7.12502
lthumb 1.00179 52.9643
rfemur 4.25397 4.32901 28.162
rtibia 49.3939
rfoot 5.55278 3.36949
rtoes -5.07991
lfemur -25.0049 -1.48866 -17.6039
ltibia 30.0123
lfoot -2.20862 -4.1447
ltoes 4.02386
